<mxfile host="diagram-viewer.giteeusercontent.com" modified="2024-09-25T03:26:49.266Z" agent="5.0 (Macintosh; Intel Mac OS X 10_15_7) AppleWebKit/537.36 (KHTML, like Gecko) Chrome/128.0.0.0 Safari/537.36" version="${version}" etag="CSZypqU6ygz38b-YSaDD">
  <diagram id="0" name="第 1 页">
    <mxGraphModel dx="965" dy="707" grid="1" gridSize="10" guides="1" tooltips="1" connect="1" arrows="1" fold="1" page="1" pageScale="1" pageWidth="827" pageHeight="1169" math="0" shadow="0">
      <root>
        <mxCell id="0" />
        <mxCell id="1" parent="0" />
        <mxCell id="1Q7tg1RWIeg1g61LBLc5-2" value="" style="shape=document;whiteSpace=wrap;html=1;boundedLbl=1;" vertex="1" parent="1">
          <mxGeometry x="350" y="320" width="120" height="80" as="geometry" />
        </mxCell>
        <mxCell id="1Q7tg1RWIeg1g61LBLc5-3" value="" style="ellipse;shape=cloud;whiteSpace=wrap;html=1;" vertex="1" parent="1">
          <mxGeometry x="350" y="320" width="120" height="80" as="geometry" />
        </mxCell>
        <mxCell id="1Q7tg1RWIeg1g61LBLc5-4" value="" style="ellipse;shape=cloud;whiteSpace=wrap;html=1;" vertex="1" parent="1">
          <mxGeometry x="350" y="320" width="120" height="80" as="geometry" />
        </mxCell>
        <mxCell id="1Q7tg1RWIeg1g61LBLc5-5" value="" style="rhombus;whiteSpace=wrap;html=1;" vertex="1" parent="1">
          <mxGeometry x="370" y="320" width="80" height="80" as="geometry" />
        </mxCell>
        <mxCell id="1Q7tg1RWIeg1g61LBLc5-6" value="" style="ellipse;whiteSpace=wrap;html=1;" vertex="1" parent="1">
          <mxGeometry x="350" y="320" width="120" height="80" as="geometry" />
        </mxCell>
      </root>
    </mxGraphModel>
  </diagram>
</mxfile>
